HIERARCHY
ROOT Hips
{
    OFFSET   0.000000   0.000000   0.000000
    CHANNELS 6 Xposition Yposition Zposition Zrotation Xrotation Yrotation
    JOINT Chest
    {
        OFFSET   0.000000   8.007230   0.000000
        CHANNELS 3 Zrotation Xrotation Yrotation
        JOINT Chest2
        {
            OFFSET   0.000000  22.077100   0.000000
            CHANNELS 3 Zrotation Xrotation Yrotation
            JOINT Neck
            {
                OFFSET   0.000000  23.254800  -0.000021
                CHANNELS 3 Zrotation Xrotation Yrotation
                JOINT Head
                {
                    OFFSET   0.000000  14.370000   1.956610
                    CHANNELS 3 Zrotation Xrotation Yrotation
                    End Site
                    {
                        OFFSET   0.000000  19.566000   0.000000
                    }
                }
            }
            JOINT LeftCollar
            {
                OFFSET   3.911900  19.017000  -0.467063
                CHANNELS 3 Zrotation Xrotation Yrotation
                JOINT LeftShoulder
                {
                    OFFSET  10.383700   0.000000   0.000000
                    CHANNELS 3 Zrotation Xrotation Yrotation
                    JOINT LeftElbow
                    {
                        OFFSET  26.662100   0.001529   0.000325
                        CHANNELS 3 Zrotation Xrotation Yrotation
                        JOINT LeftWrist
                        {
                            OFFSET  28.869000  -0.000011  -0.000096
                            CHANNELS 3 Zrotation Xrotation Yrotation
                            JOINT LeftFinger0
                            {
                                OFFSET   2.044650  -2.323460   3.252850
                                CHANNELS 3 Zrotation Xrotation Yrotation
                                JOINT LeftFinger01
                                {
                                    OFFSET   3.088130   0.000000   0.000000
                                    CHANNELS 3 Zrotation Xrotation Yrotation
                                    JOINT LeftFinger02
                                    {
                                        OFFSET   2.639460   0.000000   0.000000
                                        CHANNELS 3 Zrotation Xrotation Yrotation
                                        End Site
                                        {
                                            OFFSET   2.582190   0.000000   0.000000
                                        }
                                    }
                                }
                            }
                            JOINT LeftFinger1
                            {
                                OFFSET   8.364480   0.000000   3.252850
                                CHANNELS 3 Zrotation Xrotation Yrotation
                                JOINT LeftFinger11
                                {
                                    OFFSET   4.646930   0.000000   0.000000
                                    CHANNELS 3 Zrotation Xrotation Yrotation
                                    JOINT LeftFinger12
                                    {
                                        OFFSET   2.323460   0.000000   0.000000
                                        CHANNELS 3 Zrotation Xrotation Yrotation
                                        End Site
                                        {
                                            OFFSET   2.273050   0.000000   0.000000
                                        }
                                    }
                                }
                            }
                            JOINT LeftFinger2
                            {
                                OFFSET   8.364480   0.000016   1.078090
                                CHANNELS 3 Zrotation Xrotation Yrotation
                                JOINT LeftFinger21
                                {
                                    OFFSET   5.111620   0.000000   0.000000
                                    CHANNELS 3 Zrotation Xrotation Yrotation
                                    JOINT LeftFinger22
                                    {
                                        OFFSET   2.788160   0.000017   0.000000
                                        CHANNELS 3 Zrotation Xrotation Yrotation
                                        End Site
                                        {
                                            OFFSET   2.727660   0.000000   0.000000
                                        }
                                    }
                                }
                            }
                            JOINT LeftFinger3
                            {
                                OFFSET   7.899780   0.000015  -1.078090
                                CHANNELS 3 Zrotation Xrotation Yrotation
                                JOINT LeftFinger31
                                {
                                    OFFSET   4.646920   0.000000   0.000000
                                    CHANNELS 3 Zrotation Xrotation Yrotation
                                    JOINT LeftFinger32
                                    {
                                        OFFSET   2.323470   0.000000   0.000000
                                        CHANNELS 3 Zrotation Xrotation Yrotation
                                        End Site
                                        {
                                            OFFSET   2.273050   0.000000   0.000000
                                        }
                                    }
                                }
                            }
                            JOINT LeftFinger4
                            {
                                OFFSET   7.435090   0.000000  -3.252850
                                CHANNELS 3 Zrotation Xrotation Yrotation
                                JOINT LeftFinger41
                                {
                                    OFFSET   3.717550   0.000000   0.000000
                                    CHANNELS 3 Zrotation Xrotation Yrotation
                                    JOINT LeftFinger42
                                    {
                                        OFFSET   1.858760   0.000000   0.000000
                                        CHANNELS 3 Zrotation Xrotation Yrotation
                                        End Site
                                        {
                                            OFFSET   1.818440   0.000000   0.000000
                                        }
                                    }
                                }
                            }
                        }
                    }
                }
            }
            JOINT RightCollar
            {
                OFFSET  -3.911900  19.017000  -0.467062
                CHANNELS 3 Zrotation Xrotation Yrotation
                JOINT RightShoulder
                {
                    OFFSET -10.383700   0.000015   0.000000
                    CHANNELS 3 Zrotation Xrotation Yrotation
                    JOINT RightElbow
                    {
                        OFFSET -26.662100   0.001341   0.000385
                        CHANNELS 3 Zrotation Xrotation Yrotation
                        JOINT RightWrist
                        {
                            OFFSET -28.869000   0.000025  -0.000080
                            CHANNELS 3 Zrotation Xrotation Yrotation
                            JOINT RightFinger0
                            {
                                OFFSET  -2.044650  -2.323490   3.252850
                                CHANNELS 3 Zrotation Xrotation Yrotation
                                JOINT RightFinger01
                                {
                                    OFFSET  -3.088130   0.000000   0.000000
                                    CHANNELS 3 Zrotation Xrotation Yrotation
                                    JOINT RightFinger02
                                    {
                                        OFFSET  -2.639460   0.000000   0.000000
                                        CHANNELS 3 Zrotation Xrotation Yrotation
                                        End Site
                                        {
                                            OFFSET  -2.582190   0.000000   0.000000
                                        }
                                    }
                                }
                            }
                            JOINT RightFinger1
                            {
                                OFFSET  -8.364480   0.000000   3.252850
                                CHANNELS 3 Zrotation Xrotation Yrotation
                                JOINT RightFinger11
                                {
                                    OFFSET  -4.646930   0.000000   0.000000
                                    CHANNELS 3 Zrotation Xrotation Yrotation
                                    JOINT RightFinger12
                                    {
                                        OFFSET  -2.323470   0.000000   0.000000
                                        CHANNELS 3 Zrotation Xrotation Yrotation
                                        End Site
                                        {
                                            OFFSET  -2.273050   0.000000   0.000000
                                        }
                                    }
                                }
                            }
                            JOINT RightFinger2
                            {
                                OFFSET  -8.364480   0.000000   1.078090
                                CHANNELS 3 Zrotation Xrotation Yrotation
                                JOINT RightFinger21
                                {
                                    OFFSET  -5.111610   0.000000   0.000000
                                    CHANNELS 3 Zrotation Xrotation Yrotation
                                    JOINT RightFinger22
                                    {
                                        OFFSET  -2.788160   0.000000   0.000000
                                        CHANNELS 3 Zrotation Xrotation Yrotation
                                        End Site
                                        {
                                            OFFSET  -2.727660   0.000000   0.000000
                                        }
                                    }
                                }
                            }
                            JOINT RightFinger3
                            {
                                OFFSET  -7.899780   0.000000  -1.078090
                                CHANNELS 3 Zrotation Xrotation Yrotation
                                JOINT RightFinger31
                                {
                                    OFFSET  -4.646920   0.000000   0.000000
                                    CHANNELS 3 Zrotation Xrotation Yrotation
                                    JOINT RightFinger32
                                    {
                                        OFFSET  -2.323470   0.000000   0.000000
                                        CHANNELS 3 Zrotation Xrotation Yrotation
                                        End Site
                                        {
                                            OFFSET  -2.273050   0.000000   0.000000
                                        }
                                    }
                                }
                            }
                            JOINT RightFinger4
                            {
                                OFFSET  -7.435090   0.000000  -3.252850
                                CHANNELS 3 Zrotation Xrotation Yrotation
                                JOINT RightFinger41
                                {
                                    OFFSET  -3.717550   0.000000   0.000000
                                    CHANNELS 3 Zrotation Xrotation Yrotation
                                    JOINT RightFinger42
                                    {
                                        OFFSET  -1.858770   0.000000   0.000000
                                        CHANNELS 3 Zrotation Xrotation Yrotation
                                        End Site
                                        {
                                            OFFSET  -1.818440   0.000000   0.000000
                                        }
                                    }
                                }
                            }
                        }
                    }
                }
            }
        }
    }
    JOINT LeftHip
    {
        OFFSET   9.783010   0.000000   0.000000
        CHANNELS 3 Zrotation Xrotation Yrotation
        JOINT LeftKnee
        {
            OFFSET   0.000070 -41.789100   0.000028
            CHANNELS 3 Zrotation Xrotation Yrotation
            JOINT LeftAnkle
            {
                OFFSET   0.000087 -41.133200  -0.000100
                CHANNELS 3 Zrotation Xrotation Yrotation
                JOINT LeftToe
                {
                    OFFSET   0.000000  -6.358960  14.674500
                    CHANNELS 3 Zrotation Xrotation Yrotation
                    End Site
                    {
                        OFFSET   0.000000   0.000000   3.913200
                    }
                }
            }
        }
    }
    JOINT RightHip
    {
        OFFSET  -9.783020   0.000000   0.000000
        CHANNELS 3 Zrotation Xrotation Yrotation
        JOINT RightKnee
        {
            OFFSET   0.000044 -41.789100  -0.000870
            CHANNELS 3 Zrotation Xrotation Yrotation
            JOINT RightAnkle
            {
                OFFSET  -0.000090 -41.133200  -0.000245
                CHANNELS 3 Zrotation Xrotation Yrotation
                JOINT RightToe
                {
                    OFFSET   0.000000  -6.358960  14.674500
                    CHANNELS 3 Zrotation Xrotation Yrotation
                    End Site
                    {
                        OFFSET   0.000000   0.000000   3.913200
                    }
                }
            }
        }
    }
}
MOTION
Frames: 5
Frame Time:   0.016667
  4.412870  89.015700  -1.880490  -4.673600 -17.545000 -10.120900  -2.387560   9.336400   2.132300  -5.237150  18.566500   4.758190  -4.821190   2.678280   0.225851  -7.966350   5.320960  20.868500  -2.412230   1.971280   4.299360 -72.334300   9.127490  -3.253110  -0.629762   0.804235 -14.214600  12.077100  -5.458000  -1.843040  37.343500  29.919300 -45.789300 -34.033300  -0.001097  -0.000643 -12.016600  -0.000600   0.000605 -37.886000  -0.916731   1.177920 -31.005300   0.000295  -0.001243 -21.703700   0.004399   0.006435 -29.363600  -3.747070   6.622780 -44.371100  -0.003373  -0.007174 -29.551200  -0.002388  -0.007772 -29.129900  -4.490330   7.997620 -44.164600   0.000710   0.011368 -29.413700  -0.000679   0.000814 -40.368400  -5.967930   6.969510 -61.096700   0.011681  -0.010636 -40.690400   0.010317   0.000770   0.376365   0.238952   2.827090  15.752600 -16.987100  56.332500 -31.656400  -5.432530  69.462600 -41.857400  25.626200  47.307000 -59.040400  54.333300 108.293000 -16.743200   0.000957   0.000362 -13.371600  -0.004917   0.001781  80.129900   4.366820   0.760793  65.584500   0.000494  -0.001361  49.188400  -0.000110   0.000447  78.730700  -0.000242   0.001726  78.730800   0.001692   0.000000  59.048100   0.000454  -0.000507  86.590600  -4.991350  -0.295477  86.603500   0.002061   0.000289  64.952600  -0.001064  -0.000331  87.246200  -9.989200  -0.476005 110.000000  -0.001961   0.002334  80.000000   0.007107   0.003177   0.029413  19.867000   0.411344  -1.414630   0.963556  14.176700   0.915403  -4.580200   6.266360   0.000000   0.000000   0.000000  -1.622940  10.063300  -3.856580  -4.423980  15.393900  -7.166390   3.696930  -6.253270   2.051480   0.000000   0.000000   0.000000
  4.375300  89.023700  -1.906070  -4.672470 -17.443900 -10.058800  -2.374470   9.262200   2.151910  -5.208210  18.417900   4.791600  -4.636690   2.704320   0.219081  -7.663000   5.377540  23.608500  -2.422650   2.006330   4.361230 -72.328200   9.147890  -3.416090  -0.599528   0.836454 -14.175700  12.126900  -5.545130  -1.840310  37.333200  29.903000 -45.704700 -34.058000  -0.001087  -0.000665 -12.029000  -0.000592   0.000490 -37.910500  -0.892053   1.145320 -31.025200   0.000314  -0.001043 -21.717700   0.004471   0.006511 -29.345300  -3.747830   6.627710 -44.344100  -0.003443  -0.007270 -29.533200  -0.002441  -0.007857 -29.158400  -4.482620   7.974220 -44.207000   0.000722   0.011443 -29.441900  -0.000678   0.000715 -40.494100  -5.965610   6.939100 -61.284600   0.011791  -0.010695 -40.815500   0.010405   0.000790   0.305678   0.216940   2.843010  14.859400 -17.066900  56.217500 -31.013300  -5.584240  68.956000 -41.712200  25.711700  48.279100 -59.040400  54.333300 108.293000 -16.919500   0.000979   0.000357 -13.459800  -0.004977   0.001790  80.283600   4.405280   0.754804  65.710300   0.000459  -0.001320  49.282700  -0.000071   0.000465  78.959100  -0.000312   0.002222  78.959200   0.002166   0.000000  59.219400   0.000463  -0.000482  86.823900  -4.992740  -0.275436  86.835900   0.002257   0.000800  65.126900  -0.001017  -0.000404  87.559700  -9.991760  -0.421651 110.000000  -0.001912   0.002297  80.000000   0.007118   0.003088   0.083543  19.762900   0.402077  -1.420630   0.932466  14.094900   0.924218  -4.555780   6.287750   0.000000   0.000000  -0.000000  -1.587240   9.981330  -3.871780  -4.405870  15.316500  -7.208820   3.678900  -6.191200   2.044800   0.000000   0.000000  -0.000000
  4.330910  89.034600  -1.921280  -4.652080 -17.334600  -9.942180  -2.378150   9.161750   2.141940  -5.206820  18.217500   4.765840  -4.419200   2.744240   0.211797  -7.303550   5.466430  25.910100  -2.385040   2.068980   4.473380 -72.356000   9.087790  -3.488330  -0.578259   0.860801 -14.240400  12.160500  -5.793120  -1.866090  37.348000  29.828500 -45.557900 -33.988900  -0.001082  -0.000637 -11.994400  -0.000578   0.000361 -37.923600  -0.921294   1.182480 -31.036300   0.000334  -0.000832 -21.725500   0.004542   0.006591 -29.277000  -3.748490   6.646890 -44.242600  -0.003512  -0.007360 -29.465600  -0.002495  -0.007938 -29.184600  -4.473140   7.949150 -44.244000   0.000734   0.011515 -29.466500  -0.000678   0.000619 -40.622100  -5.965090   6.905870 -61.474200   0.011897  -0.010750 -40.941800   0.010490   0.000806   0.207343   0.239824   2.870410  13.788000 -17.054600  55.819300 -30.588200  -5.258120  68.975300 -41.414400  25.721000  49.122200 -59.040400  54.333300 108.293000 -17.088300   0.000999   0.000359 -13.544200  -0.005024   0.001797  80.320600   4.414320   0.752511  65.740500   0.000409  -0.001294  49.305400  -0.000026   0.000478  79.039400  -0.000377   0.002783  79.039500   0.002661   0.000040  59.279600   0.000469  -0.000458  86.873300  -4.993310  -0.270265  86.885100   0.002638   0.001318  65.163900  -0.000958  -0.000496  87.658900  -9.992390  -0.403188 110.000000  -0.001867   0.002258  80.000000   0.007136   0.002991   0.137489  19.578200   0.366036  -1.424920   0.970556  14.019000   0.920298  -4.528790   6.277870  -0.000000   0.000000   0.000000  -1.553270   9.917080  -3.902150  -4.378880  15.220700  -7.280450   3.651210  -6.134650   2.021670   0.000000   0.000000   0.000000
  4.280150  89.047800  -1.926490  -4.614950 -17.219400  -9.773810  -2.394700   9.045110   2.122450  -5.230570  17.984800   4.720390  -4.176760   2.797570   0.204015  -6.906390   5.580930  27.594800  -2.305630   2.146310   4.582250 -72.381800   8.970780  -3.523880  -0.565153   0.884285 -14.354100  12.178200  -6.070150  -1.892020  37.365300  29.780000 -45.439000 -33.886300  -0.001072  -0.000609 -11.943100  -0.000561   0.000232 -37.929100  -0.950535   1.219640 -31.041200   0.000357  -0.000609 -21.728900   0.004612   0.006672 -29.197100  -3.749130   6.669420 -44.123800  -0.003582  -0.007443 -29.386500  -0.002550  -0.008014 -29.207900  -4.466170   7.929490 -44.277100   0.000744   0.011581 -29.488500  -0.000680   0.000525 -40.750400  -5.965310   6.877040 -61.664400   0.012000  -0.010802 -41.068500   0.010571   0.000820   0.107054   0.274161   2.889160  12.488400 -16.843700  55.219300 -30.623000  -4.474440  69.289500 -40.870200  25.706600  49.553400 -59.040400  54.333300 108.293000 -17.250500   0.001017   0.000363 -13.625300  -0.005067   0.001804  80.337300   4.418450   0.751585  65.754100   0.000353  -0.001267  49.315600   0.000000   0.000490  79.064900  -0.000437   0.003342  79.065000   0.003159   0.000111  59.298700   0.000490  -0.000433  86.896100  -4.993500  -0.267991  86.907800   0.003022   0.001825  65.180900  -0.000897  -0.000609  87.698500  -9.992600  -0.395963 110.000000  -0.001820   0.002218  80.000000   0.007155   0.002896   0.195424  19.396100   0.315615  -1.428950   1.008710  13.934400   0.912795  -4.498970   6.239230   0.000000   0.000000   0.000000  -1.517810   9.870800  -3.933360  -4.344010  15.106100  -7.383040   3.616070  -6.082530   1.971530  -0.000000   0.000000   0.000000
  4.224710  89.063500  -1.925920  -4.554310 -17.096900  -9.543340  -2.425430   8.917190   2.095000  -5.279880  17.729200   4.659370  -3.911280   2.864400   0.195583  -6.462970   5.727570  28.350400  -2.213790   2.229500   4.629280 -72.359300   8.843280  -3.545880  -0.578797   0.895601 -14.485600  12.183300  -6.259540  -1.869040  37.380900  29.799000 -45.422000 -33.821500  -0.001046  -0.000622 -11.910800  -0.000548   0.000115 -37.910200  -0.948715   1.217890 -31.025700   0.000383  -0.000372 -21.718000   0.004684   0.006753 -29.133600  -3.749790   6.687410 -44.029500  -0.003654  -0.007518 -29.323700  -0.002607  -0.008086 -29.225000  -4.462370   7.917400 -44.301500   0.000753   0.011641 -29.504800  -0.000685   0.000437 -40.857100  -5.967120   6.854190 -61.822500   0.012099  -0.010850 -41.173800   0.010649   0.000831   0.025901   0.297094   2.842220  11.179300 -16.413800  54.518000 -30.763800  -3.433810  70.177500 -40.025400  25.601400  49.483700 -59.040400  54.333300 108.293000 -17.399400   0.001031   0.000365 -13.699700  -0.005115   0.001806  80.385500   4.430580   0.749998  65.793600   0.000300  -0.001224  49.345200   0.000000   0.000508  79.108100  -0.000493   0.003889  79.108200   0.003673   0.000175  59.331100   0.000546  -0.000402  86.952800  -4.993880  -0.262369  86.964300   0.003427   0.002320  65.223300  -0.000835  -0.000743  87.789800  -9.993030  -0.379492 110.000000  -0.001763   0.002175  80.000000   0.007174   0.002817   0.246725  19.297600   0.267267  -1.424700   0.948452  13.830700   0.900054  -4.465000   6.160550  -0.000000   0.000000   0.000000  -1.485670   9.848720  -3.949230  -4.296730  14.964800  -7.533410   3.576130  -6.033720   1.891190  -0.000000   0.000000   0.000000
